<?xml version="1.0" encoding="UTF-8" standalone="no"?>
<!DOCTYPE svg PUBLIC "-//W3C//DTD SVG 1.1//EN" "http://www.w3.org/Graphics/SVG/1.1/DTD/svg11.dtd">
<svg xmlns="http://www.w3.org/2000/svg" version="1.1" viewBox="0.00 0.00 1024.00 1024.00">
<g stroke-width="2.00" fill="none" stroke-linecap="butt">
<path stroke="#788996" vector-effect="non-scaling-stroke" d="
  M 288.60 466.60
  A 0.48 0.47 -81.4 0 1 289.05 467.22
  C 284.92 480.60 293.16 494.01 306.01 498.29
  Q 310.59 499.82 321.17 499.87
  Q 364.38 500.06 407.59 499.94
  Q 415.51 499.92 418.79 501.07
  C 434.59 506.62 436.92 529.09 421.06 535.30
  Q 417.36 536.75 409.24 536.76
  Q 354.49 536.81 299.75 536.78
  Q 291.05 536.78 283.97 539.39
  C 264.01 546.75 259.25 571.65 272.68 587.11
  Q 282.68 598.63 300.51 598.74
  Q 321.37 598.87 342.05 598.59
  A 1.37 1.37 0.0 0 1 343.12 599.08
  C 378.29 640.81 426.71 668.63 480.88 678.67
  C 499.62 682.15 520.19 682.81 538.76 681.80
  C 612.81 677.78 677.98 639.75 719.38 578.63
  Q 750.34 532.93 757.43 476.99
  C 769.96 378.16 721.22 284.88 634.17 237.32
  C 583.76 209.78 525.18 201.76 468.73 215.37
  Q 401.18 231.66 351.87 281.21
  Q 351.52 281.56 351.01 281.56
  Q 340.08 281.52 329.13 281.83
  Q 322.85 282.00 318.52 283.40
  C 281.14 295.54 277.46 344.91 313.17 362.28
  C 319.02 365.12 327.20 367.46 330.27 373.78
  C 336.47 386.55 322.23 395.84 311.76 395.87
  Q 289.75 395.94 267.76 396.10
  Q 247.13 396.24 237.20 411.33
  C 223.95 431.46 233.84 458.35 257.37 465.09
  Q 261.90 466.39 270.26 466.51
  Q 279.49 466.64 288.60 466.60"
/>
<path stroke="#788996" vector-effect="non-scaling-stroke" d="
  M 517.92 767.47
  Q 517.98 788.11 517.98 808.75
  Q 517.98 812.03 518.61 815.39
  Q 518.72 816.00 519.34 815.99
  L 537.44 815.87
  Q 538.13 815.86 538.22 815.18
  Q 538.64 811.97 538.66 808.74
  Q 538.76 788.13 538.77 767.42
  Q 538.77 766.92 539.27 766.92
  L 556.12 767.03
  Q 556.77 767.04 556.79 766.38
  L 557.06 749.83
  Q 557.08 748.84 556.09 748.83
  L 539.30 748.80
  Q 538.86 748.79 538.83 748.36
  C 537.95 737.25 545.15 734.31 554.72 736.65
  A 1.09 1.09 0.0 0 0 555.97 736.07
  L 562.92 721.87
  Q 563.08 721.53 562.75 721.37
  C 544.66 712.73 521.43 718.29 518.22 740.78
  Q 517.91 742.94 518.01 748.41
  Q 518.02 748.91 517.53 748.93
  L 511.00 749.21
  Q 509.50 749.27 509.50 750.77
  L 509.49 766.23
  A 0.51 0.51 0.0 0 0 509.98 766.74
  L 517.42 766.96
  Q 517.92 766.98 517.92 767.47"
/>
<path stroke="#788996" vector-effect="non-scaling-stroke" d="
  M 507.9911 726.8243
  A 12.15 11.77 -19.1 0 0 492.6586 719.6780
  A 12.15 11.77 -19.1 0 0 485.0289 734.7757
  A 12.15 11.77 -19.1 0 0 500.3614 741.9220
  A 12.15 11.77 -19.1 0 0 507.9911 726.8243"
/>
<path stroke="#788996" vector-effect="non-scaling-stroke" d="
  M 328.08 720.73
  L 317.14 720.71
  A 4.82 4.82 0.0 0 0 312.31 725.52
  L 312.17 809.53
  A 6.41 3.76 -89.9 0 0 315.92 815.95
  L 328.98 815.97
  A 6.41 3.76 -89.9 0 0 332.75 809.57
  L 332.89 725.56
  A 4.82 4.82 0.0 0 0 328.08 720.73"
/>
<path stroke="#788996" vector-effect="non-scaling-stroke" d="
  M 282.51 770.38
  C 292.25 764.73 295.89 754.62 292.89 743.90
  Q 289.37 731.28 275.16 727.15
  Q 267.98 725.07 262.75 725.00
  Q 242.84 724.73 222.95 724.82
  Q 222.50 724.82 222.50 725.28
  L 222.54 813.50
  Q 222.54 815.95 224.98 815.95
  Q 243.74 815.97 263.81 815.78
  C 275.28 815.67 287.36 813.91 294.32 803.63
  C 301.18 793.47 298.65 779.77 287.81 773.45
  C 286.38 772.62 284.24 771.99 282.53 771.13
  Q 281.82 770.78 282.51 770.38"
/>
<path stroke="#788996" vector-effect="non-scaling-stroke" d="
  M 675.89 788.37
  C 685.85 788.13 699.56 789.05 708.30 785.58
  Q 723.88 779.39 727.74 764.87
  C 732.56 746.78 722.71 729.08 703.53 725.57
  Q 699.15 724.76 697.00 724.76
  Q 675.63 724.75 654.34 724.75
  Q 653.98 724.75 653.98 725.11
  Q 653.99 763.25 653.98 801.25
  Q 653.98 809.97 654.41 815.20
  A 0.67 0.67 0.0 0 0 655.03 815.81
  Q 662.56 816.31 670.10 815.78
  C 671.49 815.69 673.74 816.01 674.38 814.29
  Q 675.56 811.16 675.51 805.81
  Q 675.42 797.36 675.36 788.92
  Q 675.35 788.38 675.89 788.37"
/>
<path stroke="#788996" vector-effect="non-scaling-stroke" d="
  M 756.45 757.31
  L 756.86 749.77
  A 0.84 0.84 0.0 0 0 756.01 748.88
  L 742.29 749.04
  Q 741.78 749.04 741.50 749.47
  Q 738.43 754.21 738.31 759.00
  Q 737.89 775.17 738.43 806.75
  C 738.47 808.84 739.29 815.31 741.98 815.76
  Q 746.26 816.49 753.75 815.69
  C 756.03 815.45 757.41 815.20 758.00 812.68
  Q 758.79 809.31 758.74 805.25
  Q 758.66 798.75 758.65 779.50
  C 758.64 772.88 766.16 768.69 771.74 768.54
  A 2.40 2.40 0.0 0 0 773.97 766.83
  Q 775.61 761.39 778.67 756.65
  Q 778.95 756.21 778.60 755.82
  L 770.56 746.81
  A 0.59 0.58 -35.1 0 0 769.83 746.69
  Q 762.34 750.93 756.85 757.47
  Q 756.42 757.99 756.45 757.31"
/>
<path stroke="#788996" vector-effect="non-scaling-stroke" d="
  M 405.7674 774.0368
  A 34.84 34.28 -13.5 0 0 363.8875 748.8372
  A 34.84 34.28 -13.5 0 0 338.0126 790.3032
  A 34.84 34.28 -13.5 0 0 379.8925 815.5028
  A 34.84 34.28 -13.5 0 0 405.7674 774.0368"
/>
<path stroke="#788996" vector-effect="non-scaling-stroke" d="
  M 457.81 805.77
  Q 459.07 817.46 449.88 822.16
  C 439.92 827.24 426.26 821.85 418.02 815.49
  Q 417.57 815.15 417.26 815.62
  L 408.77 828.68
  Q 408.43 829.22 408.92 829.62
  Q 426.94 844.57 449.19 841.58
  C 466.37 839.27 477.95 828.51 478.21 810.67
  Q 478.66 780.07 478.47 749.38
  Q 478.47 748.87 477.96 748.88
  L 458.39 749.01
  Q 457.78 749.01 457.82 749.61
  L 458.24 756.00
  A 0.36 0.36 0.0 0 1 457.62 756.26
  C 449.28 747.06 437.61 746.11 426.59 751.20
  C 405.87 760.80 402.14 790.57 418.32 806.03
  C 429.45 816.67 447.29 819.35 457.55 805.70
  Q 457.77 805.41 457.81 805.77"
/>
<path stroke="#788996" vector-effect="non-scaling-stroke" d="
  M 841.29 782.03
  A 34.19 34.19 0.0 0 0 807.10 747.84
  A 34.19 34.19 0.0 0 0 772.91 782.03
  A 34.19 34.19 0.0 0 0 807.10 816.22
  A 34.19 34.19 0.0 0 0 841.29 782.03"
/>
<path stroke="#788996" vector-effect="non-scaling-stroke" d="
  M 601.20 784.12
  L 585.97 749.29
  Q 585.69 748.65 584.99 748.65
  L 561.53 748.64
  Q 560.83 748.64 561.15 749.27
  Q 575.75 778.00 589.60 807.10
  C 591.01 810.05 586.69 816.99 584.94 819.48
  Q 581.82 823.91 575.87 821.84
  Q 575.26 821.63 575.04 822.23
  L 568.95 839.14
  Q 568.75 839.71 569.34 839.83
  Q 576.91 841.47 583.50 840.82
  C 600.79 839.11 606.13 825.54 612.28 811.50
  Q 625.80 780.64 639.65 749.48
  A 0.69 0.69 0.0 0 0 639.02 748.51
  L 616.60 748.66
  A 0.69 0.68 -78.2 0 0 615.97 749.08
  L 601.54 784.12
  Q 601.38 784.52 601.20 784.12"
/>
<path stroke="#788996" vector-effect="non-scaling-stroke" d="
  M 486.93 754.60
  A 2.16 2.07 -34.3 0 0 486.75 755.45
  Q 486.65 783.48 486.90 812.00
  Q 486.91 813.55 488.06 815.51
  Q 488.37 816.04 488.98 816.03
  L 504.86 815.77
  A 1.07 1.05 -79.7 0 0 505.83 815.09
  Q 506.51 813.36 506.54 811.00
  Q 506.84 784.12 506.66 757.25
  C 506.59 746.71 490.72 745.72 486.93 754.60"
/>
<path stroke="#476778" vector-effect="non-scaling-stroke" d="
  M 711.84 433.51
  Q 713.34 456.38 709.73 480.33"
/>
<path stroke="#132f46" vector-effect="non-scaling-stroke" d="
  M 709.73 480.33
  Q 705.33 505.04 694.60 528.34
  Q 692.92 531.98 692.33 534.74
  Q 691.61 538.08 691.31 541.49
  Q 690.29 552.99 689.54 564.51
  Q 689.46 565.59 688.41 567.33
  A 0.39 0.38 -28.2 0 0 688.34 567.55
  L 688.06 574.74
  A 1.17 0.91 88.6 0 0 689.07 575.97
  Q 689.26 575.94 689.79 575.29
  Q 712.24 548.05 723.07 514.43
  Q 729.47 494.56 732.03 473.80
  C 732.19 472.46 731.91 470.97 731.79 469.67"
/>
<path stroke="#476778" vector-effect="non-scaling-stroke" d="
  M 731.79 469.67
  Q 732.68 466.58 732.78 465.25
  Q 734.49 442.51 731.80 420.93"
/>
<path stroke="#788996" vector-effect="non-scaling-stroke" d="
  M 731.80 420.93
  C 720.41 330.03 648.25 257.36 558.49 243.49
  C 546.56 241.65 542.76 257.30 552.15 262.83
  Q 554.32 264.11 560.62 265.15
  C 605.12 272.45 645.49 298.20 673.08 333.48
  Q 706.76 376.56 711.84 433.51"
/>
<path stroke="#b1cddb" vector-effect="non-scaling-stroke" d="
  M 731.80 420.93
  Q 724.47 430.24 711.84 433.51"
/>
<path stroke="#4c738b" vector-effect="non-scaling-stroke" d="
  M 731.79 469.67
  Q 721.96 476.91 709.73 480.33"
/>
<path stroke="#788996" vector-effect="non-scaling-stroke" d="
  M 515.73 420.99
  L 521.79 363.30
  Q 521.85 362.74 521.28 362.74
  Q 457.01 362.60 392.75 362.54
  Q 387.39 362.53 385.26 363.01
  C 368.20 366.87 373.52 391.30 388.99 391.29
  Q 430.73 391.26 472.44 391.34
  A 0.60 0.59 -86.6 0 1 473.03 392.01
  L 452.52 582.75
  Q 452.47 583.20 452.92 583.20
  Q 513.84 583.33 574.75 583.40
  C 612.66 583.45 644.66 571.33 661.82 536.45
  C 674.73 510.19 672.17 474.66 650.96 453.20
  Q 633.87 435.91 608.34 433.66
  A 0.60 0.60 0.0 0 1 608.17 432.50
  Q 613.05 430.59 617.24 427.50
  C 636.29 413.48 645.45 392.51 643.42 369.16
  C 640.19 332.19 611.76 307.91 575.49 305.21
  Q 566.29 304.53 561.25 304.54
  Q 448.38 304.71 335.50 304.71
  C 317.21 304.71 310.30 325.24 322.52 337.97
  C 327.03 342.65 332.35 343.78 339.27 343.78
  Q 444.63 343.76 550.00 343.74
  C 569.34 343.74 585.42 352.12 590.07 371.35
  C 595.62 394.31 580.86 415.54 558.20 420.27
  Q 552.12 421.54 542.50 421.67
  Q 529.43 421.85 516.35 421.69
  Q 515.65 421.68 515.73 420.99"
/>
<path stroke="#788996" vector-effect="non-scaling-stroke" d="
  M 306.15 443.00
  C 309.11 446.94 315.38 450.66 320.25 450.66
  Q 368.00 450.65 415.74 450.69
  C 423.57 450.70 430.38 449.76 434.67 443.68
  C 441.19 434.46 437.00 422.16 427.04 418.26
  Q 423.29 416.79 414.99 416.78
  Q 367.49 416.69 320.00 416.89
  C 305.73 416.95 297.21 431.09 306.15 443.00"
/>
<path stroke="#476778" vector-effect="non-scaling-stroke" d="
  M 435.16 476.22
  A 8.62 8.62 0.0 0 0 426.54 467.60
  L 358.46 467.60
  A 8.62 8.62 0.0 0 0 349.84 476.22
  L 349.84 476.62
  A 8.62 8.62 0.0 0 0 358.46 485.24
  L 426.54 485.24
  A 8.62 8.62 0.0 0 0 435.16 476.62
  L 435.16 476.22"
/>
<path stroke="#476778" vector-effect="non-scaling-stroke" d="
  M 432.18 565.66
  A 8.94 8.94 0.0 0 0 423.24 556.72
  L 334.46 556.72
  A 8.94 8.94 0.0 0 0 325.52 565.66
  L 325.52 566.18
  A 8.94 8.94 0.0 0 0 334.46 575.12
  L 423.24 575.12
  A 8.94 8.94 0.0 0 0 432.18 566.18
  L 432.18 565.66"
/>
<path stroke="#788996" vector-effect="non-scaling-stroke" d="
  M 594.48 466.59
  Q 584.40 462.10 575.25 462.04
  Q 544.29 461.84 513.41 461.93
  Q 513.10 461.93 513.06 462.24
  L 503.71 542.03
  Q 503.57 543.23 504.78 543.23
  Q 532.84 543.32 561.75 543.25
  C 579.46 543.20 596.59 540.17 608.17 525.27
  C 623.38 505.70 617.81 477.00 594.48 466.59"
/>
<path stroke="#788996" vector-effect="non-scaling-stroke" d="
  M 244.21 744.90
  L 244.03 762.12
  A 0.81 0.81 0.0 0 0 244.83 762.93
  L 260.48 763.10
  A 11.00 8.95 0.6 0 0 271.57 754.26
  L 271.58 753.32
  A 11.00 8.95 0.6 0 0 260.68 744.26
  L 245.03 744.10
  A 0.81 0.81 0.0 0 0 244.21 744.90"
/>
<path stroke="#788996" vector-effect="non-scaling-stroke" d="
  M 244.12 782.31
  L 244.00 796.58
  A 0.55 0.55 0.0 0 0 244.54 797.14
  L 265.09 797.32
  A 9.82 7.59 0.5 0 0 274.98 789.81
  L 274.98 789.61
  A 9.82 7.59 0.5 0 0 265.23 781.94
  L 244.68 781.76
  A 0.55 0.55 0.0 0 0 244.12 782.31"
/>
<path stroke="#788996" vector-effect="non-scaling-stroke" d="
  M 675.39 745.03
  L 675.35 768.47
  A 0.51 0.51 0.0 0 0 675.86 768.98
  L 692.77 769.01
  A 14.96 11.45 0.1 0 0 707.75 757.59
  L 707.75 756.03
  A 14.96 11.45 0.1 0 0 692.81 744.55
  L 675.90 744.52
  A 0.51 0.51 0.0 0 0 675.39 745.03"
/>
<path stroke="#788996" vector-effect="non-scaling-stroke" d="
  M 375.3152 796.0597
  A 14.42 14.04 76.3 0 0 385.5405 778.7248
  A 14.42 14.04 76.3 0 0 368.4848 768.0403
  A 14.42 14.04 76.3 0 0 358.2595 785.3752
  A 14.42 14.04 76.3 0 0 375.3152 796.0597"
/>
<path stroke="#788996" vector-effect="non-scaling-stroke" d="
  M 447.5539 795.8392
  A 14.66 13.96 72.6 0 0 456.4912 777.6754
  A 14.66 13.96 72.6 0 0 438.7861 767.8608
  A 14.66 13.96 72.6 0 0 429.8488 786.0246
  A 14.66 13.96 72.6 0 0 447.5539 795.8392"
/>
<path stroke="#788996" vector-effect="non-scaling-stroke" d="
  M 809.0682 796.1041
  A 14.32 13.46 82.1 0 0 820.4323 780.0700
  A 14.32 13.46 82.1 0 0 805.1318 767.7359
  A 14.32 13.46 82.1 0 0 793.7677 783.7700
  A 14.32 13.46 82.1 0 0 809.0682 796.1041"
/>
</g>
<path fill="#e2eff8" d="
  M 0.00 0.00
  L 1024.00 0.00
  L 1024.00 1024.00
  L 0.00 1024.00
  L 0.00 0.00
  Z
  M 288.60 466.60
  A 0.48 0.47 -81.4 0 1 289.05 467.22
  C 284.92 480.60 293.16 494.01 306.01 498.29
  Q 310.59 499.82 321.17 499.87
  Q 364.38 500.06 407.59 499.94
  Q 415.51 499.92 418.79 501.07
  C 434.59 506.62 436.92 529.09 421.06 535.30
  Q 417.36 536.75 409.24 536.76
  Q 354.49 536.81 299.75 536.78
  Q 291.05 536.78 283.97 539.39
  C 264.01 546.75 259.25 571.65 272.68 587.11
  Q 282.68 598.63 300.51 598.74
  Q 321.37 598.87 342.05 598.59
  A 1.37 1.37 0.0 0 1 343.12 599.08
  C 378.29 640.81 426.71 668.63 480.88 678.67
  C 499.62 682.15 520.19 682.81 538.76 681.80
  C 612.81 677.78 677.98 639.75 719.38 578.63
  Q 750.34 532.93 757.43 476.99
  C 769.96 378.16 721.22 284.88 634.17 237.32
  C 583.76 209.78 525.18 201.76 468.73 215.37
  Q 401.18 231.66 351.87 281.21
  Q 351.52 281.56 351.01 281.56
  Q 340.08 281.52 329.13 281.83
  Q 322.85 282.00 318.52 283.40
  C 281.14 295.54 277.46 344.91 313.17 362.28
  C 319.02 365.12 327.20 367.46 330.27 373.78
  C 336.47 386.55 322.23 395.84 311.76 395.87
  Q 289.75 395.94 267.76 396.10
  Q 247.13 396.24 237.20 411.33
  C 223.95 431.46 233.84 458.35 257.37 465.09
  Q 261.90 466.39 270.26 466.51
  Q 279.49 466.64 288.60 466.60
  Z
  M 517.92 767.47
  Q 517.98 788.11 517.98 808.75
  Q 517.98 812.03 518.61 815.39
  Q 518.72 816.00 519.34 815.99
  L 537.44 815.87
  Q 538.13 815.86 538.22 815.18
  Q 538.64 811.97 538.66 808.74
  Q 538.76 788.13 538.77 767.42
  Q 538.77 766.92 539.27 766.92
  L 556.12 767.03
  Q 556.77 767.04 556.79 766.38
  L 557.06 749.83
  Q 557.08 748.84 556.09 748.83
  L 539.30 748.80
  Q 538.86 748.79 538.83 748.36
  C 537.95 737.25 545.15 734.31 554.72 736.65
  A 1.09 1.09 0.0 0 0 555.97 736.07
  L 562.92 721.87
  Q 563.08 721.53 562.75 721.37
  C 544.66 712.73 521.43 718.29 518.22 740.78
  Q 517.91 742.94 518.01 748.41
  Q 518.02 748.91 517.53 748.93
  L 511.00 749.21
  Q 509.50 749.27 509.50 750.77
  L 509.49 766.23
  A 0.51 0.51 0.0 0 0 509.98 766.74
  L 517.42 766.96
  Q 517.92 766.98 517.92 767.47
  Z
  M 507.9911 726.8243
  A 12.15 11.77 -19.1 0 0 492.6586 719.6780
  A 12.15 11.77 -19.1 0 0 485.0289 734.7757
  A 12.15 11.77 -19.1 0 0 500.3614 741.9220
  A 12.15 11.77 -19.1 0 0 507.9911 726.8243
  Z
  M 328.08 720.73
  L 317.14 720.71
  A 4.82 4.82 0.0 0 0 312.31 725.52
  L 312.17 809.53
  A 6.41 3.76 -89.9 0 0 315.92 815.95
  L 328.98 815.97
  A 6.41 3.76 -89.9 0 0 332.75 809.57
  L 332.89 725.56
  A 4.82 4.82 0.0 0 0 328.08 720.73
  Z
  M 282.51 770.38
  C 292.25 764.73 295.89 754.62 292.89 743.90
  Q 289.37 731.28 275.16 727.15
  Q 267.98 725.07 262.75 725.00
  Q 242.84 724.73 222.95 724.82
  Q 222.50 724.82 222.50 725.28
  L 222.54 813.50
  Q 222.54 815.95 224.98 815.95
  Q 243.74 815.97 263.81 815.78
  C 275.28 815.67 287.36 813.91 294.32 803.63
  C 301.18 793.47 298.65 779.77 287.81 773.45
  C 286.38 772.62 284.24 771.99 282.53 771.13
  Q 281.82 770.78 282.51 770.38
  Z
  M 675.89 788.37
  C 685.85 788.13 699.56 789.05 708.30 785.58
  Q 723.88 779.39 727.74 764.87
  C 732.56 746.78 722.71 729.08 703.53 725.57
  Q 699.15 724.76 697.00 724.76
  Q 675.63 724.75 654.34 724.75
  Q 653.98 724.75 653.98 725.11
  Q 653.99 763.25 653.98 801.25
  Q 653.98 809.97 654.41 815.20
  A 0.67 0.67 0.0 0 0 655.03 815.81
  Q 662.56 816.31 670.10 815.78
  C 671.49 815.69 673.74 816.01 674.38 814.29
  Q 675.56 811.16 675.51 805.81
  Q 675.42 797.36 675.36 788.92
  Q 675.35 788.38 675.89 788.37
  Z
  M 756.45 757.31
  L 756.86 749.77
  A 0.84 0.84 0.0 0 0 756.01 748.88
  L 742.29 749.04
  Q 741.78 749.04 741.50 749.47
  Q 738.43 754.21 738.31 759.00
  Q 737.89 775.17 738.43 806.75
  C 738.47 808.84 739.29 815.31 741.98 815.76
  Q 746.26 816.49 753.75 815.69
  C 756.03 815.45 757.41 815.20 758.00 812.68
  Q 758.79 809.31 758.74 805.25
  Q 758.66 798.75 758.65 779.50
  C 758.64 772.88 766.16 768.69 771.74 768.54
  A 2.40 2.40 0.0 0 0 773.97 766.83
  Q 775.61 761.39 778.67 756.65
  Q 778.95 756.21 778.60 755.82
  L 770.56 746.81
  A 0.59 0.58 -35.1 0 0 769.83 746.69
  Q 762.34 750.93 756.85 757.47
  Q 756.42 757.99 756.45 757.31
  Z
  M 405.7674 774.0368
  A 34.84 34.28 -13.5 0 0 363.8875 748.8372
  A 34.84 34.28 -13.5 0 0 338.0126 790.3032
  A 34.84 34.28 -13.5 0 0 379.8925 815.5028
  A 34.84 34.28 -13.5 0 0 405.7674 774.0368
  Z
  M 457.81 805.77
  Q 459.07 817.46 449.88 822.16
  C 439.92 827.24 426.26 821.85 418.02 815.49
  Q 417.57 815.15 417.26 815.62
  L 408.77 828.68
  Q 408.43 829.22 408.92 829.62
  Q 426.94 844.57 449.19 841.58
  C 466.37 839.27 477.95 828.51 478.21 810.67
  Q 478.66 780.07 478.47 749.38
  Q 478.47 748.87 477.96 748.88
  L 458.39 749.01
  Q 457.78 749.01 457.82 749.61
  L 458.24 756.00
  A 0.36 0.36 0.0 0 1 457.62 756.26
  C 449.28 747.06 437.61 746.11 426.59 751.20
  C 405.87 760.80 402.14 790.57 418.32 806.03
  C 429.45 816.67 447.29 819.35 457.55 805.70
  Q 457.77 805.41 457.81 805.77
  Z
  M 841.29 782.03
  A 34.19 34.19 0.0 0 0 807.10 747.84
  A 34.19 34.19 0.0 0 0 772.91 782.03
  A 34.19 34.19 0.0 0 0 807.10 816.22
  A 34.19 34.19 0.0 0 0 841.29 782.03
  Z
  M 601.20 784.12
  L 585.97 749.29
  Q 585.69 748.65 584.99 748.65
  L 561.53 748.64
  Q 560.83 748.64 561.15 749.27
  Q 575.75 778.00 589.60 807.10
  C 591.01 810.05 586.69 816.99 584.94 819.48
  Q 581.82 823.91 575.87 821.84
  Q 575.26 821.63 575.04 822.23
  L 568.95 839.14
  Q 568.75 839.71 569.34 839.83
  Q 576.91 841.47 583.50 840.82
  C 600.79 839.11 606.13 825.54 612.28 811.50
  Q 625.80 780.64 639.65 749.48
  A 0.69 0.69 0.0 0 0 639.02 748.51
  L 616.60 748.66
  A 0.69 0.68 -78.2 0 0 615.97 749.08
  L 601.54 784.12
  Q 601.38 784.52 601.20 784.12
  Z
  M 486.93 754.60
  A 2.16 2.07 -34.3 0 0 486.75 755.45
  Q 486.65 783.48 486.90 812.00
  Q 486.91 813.55 488.06 815.51
  Q 488.37 816.04 488.98 816.03
  L 504.86 815.77
  A 1.07 1.05 -79.7 0 0 505.83 815.09
  Q 506.51 813.36 506.54 811.00
  Q 506.84 784.12 506.66 757.25
  C 506.59 746.71 490.72 745.72 486.93 754.60
  Z"
/>
<path fill="#0d2233" d="
  M 288.60 466.60
  Q 279.49 466.64 270.26 466.51
  Q 261.90 466.39 257.37 465.09
  C 233.84 458.35 223.95 431.46 237.20 411.33
  Q 247.13 396.24 267.76 396.10
  Q 289.75 395.94 311.76 395.87
  C 322.23 395.84 336.47 386.55 330.27 373.78
  C 327.20 367.46 319.02 365.12 313.17 362.28
  C 277.46 344.91 281.14 295.54 318.52 283.40
  Q 322.85 282.00 329.13 281.83
  Q 340.08 281.52 351.01 281.56
  Q 351.52 281.56 351.87 281.21
  Q 401.18 231.66 468.73 215.37
  C 525.18 201.76 583.76 209.78 634.17 237.32
  C 721.22 284.88 769.96 378.16 757.43 476.99
  Q 750.34 532.93 719.38 578.63
  C 677.98 639.75 612.81 677.78 538.76 681.80
  C 520.19 682.81 499.62 682.15 480.88 678.67
  C 426.71 668.63 378.29 640.81 343.12 599.08
  A 1.37 1.37 0.0 0 0 342.05 598.59
  Q 321.37 598.87 300.51 598.74
  Q 282.68 598.63 272.68 587.11
  C 259.25 571.65 264.01 546.75 283.97 539.39
  Q 291.05 536.78 299.75 536.78
  Q 354.49 536.81 409.24 536.76
  Q 417.36 536.75 421.06 535.30
  C 436.92 529.09 434.59 506.62 418.79 501.07
  Q 415.51 499.92 407.59 499.94
  Q 364.38 500.06 321.17 499.87
  Q 310.59 499.82 306.01 498.29
  C 293.16 494.01 284.92 480.60 289.05 467.22
  A 0.48 0.47 -81.4 0 0 288.60 466.60
  Z
  M 711.84 433.51
  Q 713.34 456.38 709.73 480.33
  Q 705.33 505.04 694.60 528.34
  Q 692.92 531.98 692.33 534.74
  Q 691.61 538.08 691.31 541.49
  Q 690.29 552.99 689.54 564.51
  Q 689.46 565.59 688.41 567.33
  A 0.39 0.38 -28.2 0 0 688.34 567.55
  L 688.06 574.74
  A 1.17 0.91 88.6 0 0 689.07 575.97
  Q 689.26 575.94 689.79 575.29
  Q 712.24 548.05 723.07 514.43
  Q 729.47 494.56 732.03 473.80
  C 732.19 472.46 731.91 470.97 731.79 469.67
  Q 732.68 466.58 732.78 465.25
  Q 734.49 442.51 731.80 420.93
  C 720.41 330.03 648.25 257.36 558.49 243.49
  C 546.56 241.65 542.76 257.30 552.15 262.83
  Q 554.32 264.11 560.62 265.15
  C 605.12 272.45 645.49 298.20 673.08 333.48
  Q 706.76 376.56 711.84 433.51
  Z
  M 515.73 420.99
  L 521.79 363.30
  Q 521.85 362.74 521.28 362.74
  Q 457.01 362.60 392.75 362.54
  Q 387.39 362.53 385.26 363.01
  C 368.20 366.87 373.52 391.30 388.99 391.29
  Q 430.73 391.26 472.44 391.34
  A 0.60 0.59 -86.6 0 1 473.03 392.01
  L 452.52 582.75
  Q 452.47 583.20 452.92 583.20
  Q 513.84 583.33 574.75 583.40
  C 612.66 583.45 644.66 571.33 661.82 536.45
  C 674.73 510.19 672.17 474.66 650.96 453.20
  Q 633.87 435.91 608.34 433.66
  A 0.60 0.60 0.0 0 1 608.17 432.50
  Q 613.05 430.59 617.24 427.50
  C 636.29 413.48 645.45 392.51 643.42 369.16
  C 640.19 332.19 611.76 307.91 575.49 305.21
  Q 566.29 304.53 561.25 304.54
  Q 448.38 304.71 335.50 304.71
  C 317.21 304.71 310.30 325.24 322.52 337.97
  C 327.03 342.65 332.35 343.78 339.27 343.78
  Q 444.63 343.76 550.00 343.74
  C 569.34 343.74 585.42 352.12 590.07 371.35
  C 595.62 394.31 580.86 415.54 558.20 420.27
  Q 552.12 421.54 542.50 421.67
  Q 529.43 421.85 516.35 421.69
  Q 515.65 421.68 515.73 420.99
  Z
  M 306.15 443.00
  C 309.11 446.94 315.38 450.66 320.25 450.66
  Q 368.00 450.65 415.74 450.69
  C 423.57 450.70 430.38 449.76 434.67 443.68
  C 441.19 434.46 437.00 422.16 427.04 418.26
  Q 423.29 416.79 414.99 416.78
  Q 367.49 416.69 320.00 416.89
  C 305.73 416.95 297.21 431.09 306.15 443.00
  Z
  M 435.16 476.22
  A 8.62 8.62 0.0 0 0 426.54 467.60
  L 358.46 467.60
  A 8.62 8.62 0.0 0 0 349.84 476.22
  L 349.84 476.62
  A 8.62 8.62 0.0 0 0 358.46 485.24
  L 426.54 485.24
  A 8.62 8.62 0.0 0 0 435.16 476.62
  L 435.16 476.22
  Z
  M 432.18 565.66
  A 8.94 8.94 0.0 0 0 423.24 556.72
  L 334.46 556.72
  A 8.94 8.94 0.0 0 0 325.52 565.66
  L 325.52 566.18
  A 8.94 8.94 0.0 0 0 334.46 575.12
  L 423.24 575.12
  A 8.94 8.94 0.0 0 0 432.18 566.18
  L 432.18 565.66
  Z"
/>
<path fill="#e2eff8" d="
  M 731.80 420.93
  Q 724.47 430.24 711.84 433.51
  Q 706.76 376.56 673.08 333.48
  C 645.49 298.20 605.12 272.45 560.62 265.15
  Q 554.32 264.11 552.15 262.83
  C 542.76 257.30 546.56 241.65 558.49 243.49
  C 648.25 257.36 720.41 330.03 731.80 420.93
  Z"
/>
<path fill="#e2eff8" d="
  M 516.35 421.69
  Q 529.43 421.85 542.50 421.67
  Q 552.12 421.54 558.20 420.27
  C 580.86 415.54 595.62 394.31 590.07 371.35
  C 585.42 352.12 569.34 343.74 550.00 343.74
  Q 444.63 343.76 339.27 343.78
  C 332.35 343.78 327.03 342.65 322.52 337.97
  C 310.30 325.24 317.21 304.71 335.50 304.71
  Q 448.38 304.71 561.25 304.54
  Q 566.29 304.53 575.49 305.21
  C 611.76 307.91 640.19 332.19 643.42 369.16
  C 645.45 392.51 636.29 413.48 617.24 427.50
  Q 613.05 430.59 608.17 432.50
  A 0.60 0.60 0.0 0 0 608.34 433.66
  Q 633.87 435.91 650.96 453.20
  C 672.17 474.66 674.73 510.19 661.82 536.45
  C 644.66 571.33 612.66 583.45 574.75 583.40
  Q 513.84 583.33 452.92 583.20
  Q 452.47 583.20 452.52 582.75
  L 473.03 392.01
  A 0.60 0.59 -86.6 0 0 472.44 391.34
  Q 430.73 391.26 388.99 391.29
  C 373.52 391.30 368.20 366.87 385.26 363.01
  Q 387.39 362.53 392.75 362.54
  Q 457.01 362.60 521.28 362.74
  Q 521.85 362.74 521.79 363.30
  L 515.73 420.99
  Q 515.65 421.68 516.35 421.69
  Z
  M 594.48 466.59
  Q 584.40 462.10 575.25 462.04
  Q 544.29 461.84 513.41 461.93
  Q 513.10 461.93 513.06 462.24
  L 503.71 542.03
  Q 503.57 543.23 504.78 543.23
  Q 532.84 543.32 561.75 543.25
  C 579.46 543.20 596.59 540.17 608.17 525.27
  C 623.38 505.70 617.81 477.00 594.48 466.59
  Z"
/>
<path fill="#e2eff8" d="
  M 320.25 450.66
  C 315.38 450.66 309.11 446.94 306.15 443.00
  C 297.21 431.09 305.73 416.95 320.00 416.89
  Q 367.49 416.69 414.99 416.78
  Q 423.29 416.79 427.04 418.26
  C 437.00 422.16 441.19 434.46 434.67 443.68
  C 430.38 449.76 423.57 450.70 415.74 450.69
  Q 368.00 450.65 320.25 450.66
  Z"
/>
<path fill="#80abbd" d="
  M 731.80 420.93
  Q 734.49 442.51 732.78 465.25
  Q 732.68 466.58 731.79 469.67
  Q 721.96 476.91 709.73 480.33
  Q 713.34 456.38 711.84 433.51
  Q 724.47 430.24 731.80 420.93
  Z"
/>
<path fill="#0d2233" d="
  M 594.48 466.59
  C 617.81 477.00 623.38 505.70 608.17 525.27
  C 596.59 540.17 579.46 543.20 561.75 543.25
  Q 532.84 543.32 504.78 543.23
  Q 503.57 543.23 503.71 542.03
  L 513.06 462.24
  Q 513.10 461.93 513.41 461.93
  Q 544.29 461.84 575.25 462.04
  Q 584.40 462.10 594.48 466.59
  Z"
/>
<rect fill="#80abbd" x="349.84" y="467.60" width="85.32" height="17.64" rx="8.62"/>
<path fill="#183b59" d="
  M 731.79 469.67
  C 731.91 470.97 732.19 472.46 732.03 473.80
  Q 729.47 494.56 723.07 514.43
  Q 712.24 548.05 689.79 575.29
  Q 689.26 575.94 689.07 575.97
  A 1.17 0.91 88.6 0 1 688.06 574.74
  L 688.34 567.55
  A 0.39 0.38 -28.2 0 1 688.41 567.33
  Q 689.46 565.59 689.54 564.51
  Q 690.29 552.99 691.31 541.49
  Q 691.61 538.08 692.33 534.74
  Q 692.92 531.98 694.60 528.34
  Q 705.33 505.04 709.73 480.33
  Q 721.96 476.91 731.79 469.67
  Z"
/>
<rect fill="#80abbd" x="325.52" y="556.72" width="106.66" height="18.40" rx="8.94"/>
<path fill="#0d2233" d="
  M 517.42 766.96
  L 509.98 766.74
  A 0.51 0.51 0.0 0 1 509.49 766.23
  L 509.50 750.77
  Q 509.50 749.27 511.00 749.21
  L 517.53 748.93
  Q 518.02 748.91 518.01 748.41
  Q 517.91 742.94 518.22 740.78
  C 521.43 718.29 544.66 712.73 562.75 721.37
  Q 563.08 721.53 562.92 721.87
  L 555.97 736.07
  A 1.09 1.09 0.0 0 1 554.72 736.65
  C 545.15 734.31 537.95 737.25 538.83 748.36
  Q 538.86 748.79 539.30 748.80
  L 556.09 748.83
  Q 557.08 748.84 557.06 749.83
  L 556.79 766.38
  Q 556.77 767.04 556.12 767.03
  L 539.27 766.92
  Q 538.77 766.92 538.77 767.42
  Q 538.76 788.13 538.66 808.74
  Q 538.64 811.97 538.22 815.18
  Q 538.13 815.86 537.44 815.87
  L 519.34 815.99
  Q 518.72 816.00 518.61 815.39
  Q 517.98 812.03 517.98 808.75
  Q 517.98 788.11 517.92 767.47
  Q 517.92 766.98 517.42 766.96
  Z"
/>
<ellipse fill="#0d2233" cx="0.00" cy="0.00" transform="translate(496.51,730.80) rotate(-19.1)" rx="12.15" ry="11.77"/>
<path fill="#0d2233" d="
  M 328.08 720.73
  A 4.82 4.82 0.0 0 1 332.89 725.56
  L 332.75 809.57
  A 6.41 3.76 -89.9 0 1 328.98 815.97
  L 315.92 815.95
  A 6.41 3.76 -89.9 0 1 312.17 809.53
  L 312.31 725.52
  A 4.82 4.82 0.0 0 1 317.14 720.71
  L 328.08 720.73
  Z"
/>
<path fill="#0d2233" d="
  M 282.53 771.13
  C 284.24 771.99 286.38 772.62 287.81 773.45
  C 298.65 779.77 301.18 793.47 294.32 803.63
  C 287.36 813.91 275.28 815.67 263.81 815.78
  Q 243.74 815.97 224.98 815.95
  Q 222.54 815.95 222.54 813.50
  L 222.50 725.28
  Q 222.50 724.82 222.95 724.82
  Q 242.84 724.73 262.75 725.00
  Q 267.98 725.07 275.16 727.15
  Q 289.37 731.28 292.89 743.90
  C 295.89 754.62 292.25 764.73 282.51 770.38
  Q 281.82 770.78 282.53 771.13
  Z
  M 244.21 744.90
  L 244.03 762.12
  A 0.81 0.81 0.0 0 0 244.83 762.93
  L 260.48 763.10
  A 11.00 8.95 0.6 0 0 271.57 754.26
  L 271.58 753.32
  A 11.00 8.95 0.6 0 0 260.68 744.26
  L 245.03 744.10
  A 0.81 0.81 0.0 0 0 244.21 744.90
  Z
  M 244.12 782.31
  L 244.00 796.58
  A 0.55 0.55 0.0 0 0 244.54 797.14
  L 265.09 797.32
  A 9.82 7.59 0.5 0 0 274.98 789.81
  L 274.98 789.61
  A 9.82 7.59 0.5 0 0 265.23 781.94
  L 244.68 781.76
  A 0.55 0.55 0.0 0 0 244.12 782.31
  Z"
/>
<path fill="#0d2233" d="
  M 675.36 788.92
  Q 675.42 797.36 675.51 805.81
  Q 675.56 811.16 674.38 814.29
  C 673.74 816.01 671.49 815.69 670.10 815.78
  Q 662.56 816.31 655.03 815.81
  A 0.67 0.67 0.0 0 1 654.41 815.20
  Q 653.98 809.97 653.98 801.25
  Q 653.99 763.25 653.98 725.11
  Q 653.98 724.75 654.34 724.75
  Q 675.63 724.75 697.00 724.76
  Q 699.15 724.76 703.53 725.57
  C 722.71 729.08 732.56 746.78 727.74 764.87
  Q 723.88 779.39 708.30 785.58
  C 699.56 789.05 685.85 788.13 675.89 788.37
  Q 675.35 788.38 675.36 788.92
  Z
  M 675.39 745.03
  L 675.35 768.47
  A 0.51 0.51 0.0 0 0 675.86 768.98
  L 692.77 769.01
  A 14.96 11.45 0.1 0 0 707.75 757.59
  L 707.75 756.03
  A 14.96 11.45 0.1 0 0 692.81 744.55
  L 675.90 744.52
  A 0.51 0.51 0.0 0 0 675.39 745.03
  Z"
/>
<path fill="#e2eff8" d="
  M 244.21 744.90
  A 0.81 0.81 0.0 0 1 245.03 744.10
  L 260.68 744.26
  A 11.00 8.95 0.6 0 1 271.58 753.32
  L 271.57 754.26
  A 11.00 8.95 0.6 0 1 260.48 763.10
  L 244.83 762.93
  A 0.81 0.81 0.0 0 1 244.03 762.12
  L 244.21 744.90
  Z"
/>
<path fill="#e2eff8" d="
  M 675.39 745.03
  A 0.51 0.51 0.0 0 1 675.90 744.52
  L 692.81 744.55
  A 14.96 11.45 0.1 0 1 707.75 756.03
  L 707.75 757.59
  A 14.96 11.45 0.1 0 1 692.77 769.01
  L 675.86 768.98
  A 0.51 0.51 0.0 0 1 675.35 768.47
  L 675.39 745.03
  Z"
/>
<path fill="#0d2233" d="
  M 756.85 757.47
  Q 762.34 750.93 769.83 746.69
  A 0.59 0.58 -35.1 0 1 770.56 746.81
  L 778.60 755.82
  Q 778.95 756.21 778.67 756.65
  Q 775.61 761.39 773.97 766.83
  A 2.40 2.40 0.0 0 1 771.74 768.54
  C 766.16 768.69 758.64 772.88 758.65 779.50
  Q 758.66 798.75 758.74 805.25
  Q 758.79 809.31 758.00 812.68
  C 757.41 815.20 756.03 815.45 753.75 815.69
  Q 746.26 816.49 741.98 815.76
  C 739.29 815.31 738.47 808.84 738.43 806.75
  Q 737.89 775.17 738.31 759.00
  Q 738.43 754.21 741.50 749.47
  Q 741.78 749.04 742.29 749.04
  L 756.01 748.88
  A 0.84 0.84 0.0 0 1 756.86 749.77
  L 756.45 757.31
  Q 756.42 757.99 756.85 757.47
  Z"
/>
<path fill="#0d2233" d="
  M 405.7674 774.0368
  A 34.84 34.28 -13.5 0 1 379.8925 815.5028
  A 34.84 34.28 -13.5 0 1 338.0126 790.3032
  A 34.84 34.28 -13.5 0 1 363.8875 748.8372
  A 34.84 34.28 -13.5 0 1 405.7674 774.0368
  Z
  M 375.3152 796.0597
  A 14.42 14.04 76.3 0 0 385.5405 778.7248
  A 14.42 14.04 76.3 0 0 368.4848 768.0403
  A 14.42 14.04 76.3 0 0 358.2595 785.3752
  A 14.42 14.04 76.3 0 0 375.3152 796.0597
  Z"
/>
<path fill="#0d2233" d="
  M 457.55 805.70
  C 447.29 819.35 429.45 816.67 418.32 806.03
  C 402.14 790.57 405.87 760.80 426.59 751.20
  C 437.61 746.11 449.28 747.06 457.62 756.26
  A 0.36 0.36 0.0 0 0 458.24 756.00
  L 457.82 749.61
  Q 457.78 749.01 458.39 749.01
  L 477.96 748.88
  Q 478.47 748.87 478.47 749.38
  Q 478.66 780.07 478.21 810.67
  C 477.95 828.51 466.37 839.27 449.19 841.58
  Q 426.94 844.57 408.92 829.62
  Q 408.43 829.22 408.77 828.68
  L 417.26 815.62
  Q 417.57 815.15 418.02 815.49
  C 426.26 821.85 439.92 827.24 449.88 822.16
  Q 459.07 817.46 457.81 805.77
  Q 457.77 805.41 457.55 805.70
  Z
  M 447.5539 795.8392
  A 14.66 13.96 72.6 0 0 456.4912 777.6754
  A 14.66 13.96 72.6 0 0 438.7861 767.8608
  A 14.66 13.96 72.6 0 0 429.8488 786.0246
  A 14.66 13.96 72.6 0 0 447.5539 795.8392
  Z"
/>
<path fill="#0d2233" d="
  M 841.29 782.03
  A 34.19 34.19 0.0 0 1 807.10 816.22
  A 34.19 34.19 0.0 0 1 772.91 782.03
  A 34.19 34.19 0.0 0 1 807.10 747.84
  A 34.19 34.19 0.0 0 1 841.29 782.03
  Z
  M 809.0682 796.1041
  A 14.32 13.46 82.1 0 0 820.4323 780.0700
  A 14.32 13.46 82.1 0 0 805.1318 767.7359
  A 14.32 13.46 82.1 0 0 793.7677 783.7700
  A 14.32 13.46 82.1 0 0 809.0682 796.1041
  Z"
/>
<path fill="#0d2233" d="
  M 601.54 784.12
  L 615.97 749.08
  A 0.69 0.68 -78.2 0 1 616.60 748.66
  L 639.02 748.51
  A 0.69 0.69 0.0 0 1 639.65 749.48
  Q 625.80 780.64 612.28 811.50
  C 606.13 825.54 600.79 839.11 583.50 840.82
  Q 576.91 841.47 569.34 839.83
  Q 568.75 839.71 568.95 839.14
  L 575.04 822.23
  Q 575.26 821.63 575.87 821.84
  Q 581.82 823.91 584.94 819.48
  C 586.69 816.99 591.01 810.05 589.60 807.10
  Q 575.75 778.00 561.15 749.27
  Q 560.83 748.64 561.53 748.64
  L 584.99 748.65
  Q 585.69 748.65 585.97 749.29
  L 601.20 784.12
  Q 601.38 784.52 601.54 784.12
  Z"
/>
<path fill="#0d2233" d="
  M 486.93 754.60
  C 490.72 745.72 506.59 746.71 506.66 757.25
  Q 506.84 784.12 506.54 811.00
  Q 506.51 813.36 505.83 815.09
  A 1.07 1.05 -79.7 0 1 504.86 815.77
  L 488.98 816.03
  Q 488.37 816.04 488.06 815.51
  Q 486.91 813.55 486.90 812.00
  Q 486.65 783.48 486.75 755.45
  A 2.16 2.07 -34.3 0 1 486.93 754.60
  Z"
/>
<ellipse fill="#e2eff8" cx="0.00" cy="0.00" transform="translate(443.17,781.85) rotate(72.6)" rx="14.66" ry="13.96"/>
<ellipse fill="#e2eff8" cx="0.00" cy="0.00" transform="translate(371.90,782.05) rotate(76.3)" rx="14.42" ry="14.04"/>
<ellipse fill="#e2eff8" cx="0.00" cy="0.00" transform="translate(807.10,781.92) rotate(82.1)" rx="14.32" ry="13.46"/>
<path fill="#e2eff8" d="
  M 244.12 782.31
  A 0.55 0.55 0.0 0 1 244.68 781.76
  L 265.23 781.94
  A 9.82 7.59 0.5 0 1 274.98 789.61
  L 274.98 789.81
  A 9.82 7.59 0.5 0 1 265.09 797.32
  L 244.54 797.14
  A 0.55 0.55 0.0 0 1 244.00 796.58
  L 244.12 782.31
  Z"
/>
</svg>
